# xmcd
#
# Track frame offsets: 
#        150
#        10571
#        23425
#        32905
#        44644
#        56058
#        68502
#        81264
#        92744
#        108948
#
# Disc length: 1583 seconds
#
# Revision: 0
# Processed by: cddbd v1.5.2PL0 Copyright (c) Steve Scherf et al.
# Submitted via: ExactAudioCopyFreeDBPlugin 1.0
#
DISCID=72062d0a
DTITLE=Porter Wagoner - Sings His Own
DYEAR=1971
DGENRE=Country
TTITLE0=Be A Little Quieter
TTITLE1=Watching
TTITLE2=Albert Erving
TTITLE3=The Agony Of Waiting
TTITLE4=Late At Night
TTITLE5=The Late Love Of Mine
TTITLE6=Lonely Comin' Down
TTITLE7=The Way I See You
TTITLE8=Brother Harold Dee
TTITLE9=How High Is The Mountain
EXTD=
EXTT0=
EXTT1=
EXTT2=
EXTT3=
EXTT4=
EXTT5=
EXTT6=
EXTT7=
EXTT8=
EXTT9=
PLAYORDER=
